<svg width="30" height="30" viewBox="0 0 30 30" fill="none" xmlns="http://www.w3.org/2000/svg">
<path d="M-1.90735e-06 16.9451V12.3297H4.16532C4.45694 10.9581 5.00307 9.68084 5.75209 8.54941L2.96176 5.75908L6.22536 2.49547L9.04444 5.31455C10.2256 4.56257 11.5594 4.02884 12.989 3.77031V0H17.6044V3.91114C19.0092 4.25538 20.3083 4.86818 21.4444 5.69229L24.175 2.96176L27.4385 6.2253L24.5388 9.12501C25.2138 10.2946 25.6805 11.5995 25.8884 12.989H30V17.6044H25.6073C25.2515 18.883 24.6713 20.068 23.912 21.1147L26.9723 24.175L23.7088 27.4386L20.4794 24.2092C19.4027 24.8306 18.2114 25.2754 16.9451 25.5045V30H12.3297V25.3636C11.0829 25.058 9.91932 24.541 8.87907 23.8524L5.75908 26.9724L2.49547 23.7088L5.64422 20.56C4.95033 19.4701 4.4427 18.2502 4.16525 16.9451H-1.90735e-06ZM14.967 20.4066C18.1482 20.4066 20.7363 17.8186 20.7363 14.6374C20.7363 11.4562 18.1482 8.86813 14.967 8.86813C11.7858 8.86813 9.1978 11.4562 9.1978 14.6374C9.1978 17.8186 11.7858 20.4066 14.967 20.4066Z" fill="#999FBF"/>
</svg>
