<svg width="194" height="64" viewBox="0 0 194 64" fill="none" xmlns="http://www.w3.org/2000/svg">
<g clip-path="url(#clip0)">
<path d="M43.6206 22.2146C43.6077 21.5247 43.5602 20.8648 43.4824 20.2263C43.2059 17.968 42.4153 16.0525 41.1063 14.4798C39.7973 12.9071 38.1341 11.7158 36.1166 10.8973C34.0991 10.0789 31.8958 9.67175 29.4981 9.67175C27.1005 9.67175 24.8972 10.0789 22.8797 10.8973C20.8622 11.7158 19.1989 12.9114 17.8899 14.4798C16.5809 16.0525 15.7903 17.968 15.5138 20.2263C15.4361 20.8648 15.3886 21.5247 15.3756 22.2146C15.3626 22.9046 15.354 23.3588 15.354 23.5773V32.6535H43.6293V23.5816C43.6422 23.3588 43.6336 22.9046 43.6206 22.2146Z" fill="#4C2177"/>
<path d="M43.6227 12.5429C43.6097 11.853 43.5622 11.193 43.4844 10.5545C43.2079 8.29622 42.4174 6.38072 41.1084 4.80803C39.7994 3.23535 38.1361 2.04406 36.1186 1.22558C34.1054 0.407097 31.8978 0 29.5045 0C27.1068 0 24.9035 0.407097 22.886 1.22558C20.8685 2.04406 19.2053 3.23964 17.8963 4.80803C16.5873 6.38072 15.7967 8.29622 15.5202 10.5545C15.4424 11.193 15.3949 11.853 15.382 12.5429C15.369 13.2328 15.3604 13.687 15.3604 13.9056V22.9817H43.6356V13.9056C43.6443 13.687 43.6356 13.2328 43.6227 12.5429Z" fill="#6A2EA6"/>
<path d="M59.0042 38.6528L55.3062 39.7327C55.0254 39.4798 54.7273 39.2399 54.4119 39.0042C53.8935 38.6185 53.3405 38.25 52.7444 37.8943C52.1482 37.5386 51.755 37.3072 51.565 37.1958L43.6418 32.6577L36.289 45.2949L29.5063 47.279V56.9507L37.4295 61.4888C37.6239 61.6002 38.0213 61.8188 38.6305 62.153C39.2396 62.4873 39.8401 62.7787 40.432 63.0272C42.5402 63.9228 44.6095 64.1971 46.6357 63.8585C48.6618 63.52 50.5368 62.6887 52.2605 61.3645C53.9842 60.0404 55.4444 58.352 56.6411 56.2951C57.8378 54.2382 58.5852 52.1384 58.8789 49.9958C58.9567 49.4302 58.9956 48.8774 59.0042 48.3288V38.6528Z" fill="#078871"/>
<path d="M58.2395 34.2476C57.5224 32.3364 56.2479 30.6994 54.4119 29.3324C53.8934 28.9468 53.3405 28.5782 52.7443 28.2226C52.1481 27.8669 51.755 27.6355 51.5649 27.5241L43.6418 22.986L29.502 47.2747L37.4251 51.8128C37.6195 51.9242 38.0169 52.1427 38.6261 52.477C39.2352 52.8112 39.8357 53.1026 40.4276 53.3512C42.5358 54.2468 44.6051 54.521 46.6313 54.1825C48.6574 53.844 50.5324 53.0126 52.2561 51.6885C53.9798 50.3644 55.4401 48.676 56.6367 46.6191C57.8334 44.5622 58.5808 42.4624 58.8746 40.3198C59.1683 38.1814 58.9566 36.1588 58.2395 34.2476Z" fill="#09AD90"/>
<path d="M22.7196 45.2906L15.3624 32.6577L7.43927 37.1958C7.24487 37.3072 6.85173 37.5386 6.25988 37.8943C5.6637 38.25 5.11072 38.6185 4.5923 39.0042C4.27693 39.2399 3.97884 39.4841 3.69804 39.7327L0 38.6528V48.3246C0.00864027 48.8731 0.0475215 49.4302 0.125284 49.9915C0.419053 52.1341 1.16644 54.2296 2.36311 56.2908C3.55979 58.3477 5.02 60.0404 6.74373 61.3603C8.46746 62.6844 10.3424 63.5157 12.3685 63.8543C14.3947 64.1928 16.464 63.9143 18.5723 63.0229C19.1684 62.7744 19.7689 62.4787 20.3738 62.1487C20.9829 61.8145 21.3803 61.5959 21.5748 61.4845L29.4979 56.9465V47.2747L22.7196 45.2906Z" fill="#BCA817"/>
<path d="M15.3623 22.986L7.43919 27.5241C7.24478 27.6355 6.85165 27.8669 6.25979 28.2226C5.66361 28.5782 5.11063 28.9468 4.59222 29.3324C2.75616 30.6994 1.48172 32.3364 0.764578 34.2476C0.0474355 36.1588 -0.164251 38.1814 0.129518 40.3241C0.423287 42.4667 1.17067 44.5622 2.36735 46.6234C3.56403 48.6803 5.02423 50.3729 6.74797 51.6928C8.4717 53.0169 10.3466 53.8483 12.3728 54.1868C14.3989 54.5253 16.4683 54.2468 18.5765 53.3555C19.1727 53.1069 19.7732 52.8112 20.378 52.4813C20.9871 52.147 21.3846 51.9285 21.579 51.8171L29.5021 47.279L15.3623 22.986Z" fill="#EDD918"/>
<path d="M78.8813 46.9705V17.3252H83.3829L93.7167 38.3228L104.05 17.3252H108.552V46.9705H103.882V27.9697L94.7103 46.9705H92.7187L83.5644 27.9697V46.9705H78.8813Z" fill="white"/>
<path d="M118.147 47.5875C116.527 47.5875 115.158 47.2833 114.039 46.6705C112.92 46.0577 112.069 45.2478 111.498 44.2322C110.924 43.2166 110.639 42.0981 110.639 40.8769C110.639 39.8055 110.82 38.8414 111.179 37.9843C111.537 37.1273 112.09 36.3859 112.838 35.7603C113.585 35.1346 114.553 34.6247 115.745 34.2262C116.644 33.9391 117.698 33.6777 118.912 33.442C120.126 33.2063 121.435 32.992 122.856 32.7949C124.273 32.5978 125.759 32.3792 127.306 32.1478L125.522 33.1549C125.534 31.6165 125.189 30.4852 124.485 29.7567C123.781 29.0282 122.588 28.6639 120.916 28.6639C119.905 28.6639 118.929 28.8953 117.992 29.3624C117.054 29.8295 116.393 30.6309 116.022 31.7707L111.455 30.3523C112.008 28.4711 113.062 26.9627 114.622 25.8228C116.177 24.6829 118.277 24.113 120.921 24.113C122.912 24.113 124.666 24.4344 126.183 25.0815C127.699 25.7285 128.822 26.7827 129.557 28.2525C129.958 29.0367 130.2 29.8338 130.282 30.6523C130.364 31.4708 130.408 32.3578 130.408 33.3177V46.9662H126.027V42.1539L126.753 42.938C125.742 44.545 124.562 45.7192 123.215 46.4691C121.849 47.2147 120.169 47.5875 118.147 47.5875ZM119.141 43.6365C120.277 43.6365 121.245 43.4394 122.048 43.0409C122.852 42.6424 123.491 42.1539 123.966 41.5796C124.446 41.0011 124.766 40.4612 124.93 39.9512C125.193 39.3213 125.34 38.5971 125.375 37.7786C125.409 36.9601 125.426 36.3002 125.426 35.7903L126.964 36.2445C125.457 36.4759 124.161 36.6859 123.085 36.8616C122.009 37.0373 121.08 37.2087 120.303 37.3672C119.53 37.5258 118.843 37.7015 118.246 37.89C117.668 38.0957 117.175 38.3357 116.773 38.61C116.371 38.8842 116.065 39.2013 115.849 39.557C115.633 39.9127 115.529 40.3326 115.529 40.8126C115.529 41.3611 115.667 41.8453 115.944 42.2653C116.22 42.6852 116.626 43.0152 117.158 43.2637C117.693 43.5123 118.354 43.6365 119.141 43.6365Z" fill="white"/>
<path d="M142.284 47.5875C140.223 47.5875 138.422 47.0733 136.888 46.0448C135.354 45.0164 134.162 43.6151 133.32 41.8453C132.477 40.0755 132.054 38.0786 132.054 35.8546C132.054 33.6048 132.481 31.595 133.332 29.8338C134.184 28.0726 135.389 26.6756 136.953 25.6557C138.517 24.6358 140.357 24.1216 142.474 24.1216C144.604 24.1216 146.392 24.6315 147.839 25.6557C149.287 26.6799 150.38 28.0769 151.127 29.8467C151.875 31.6165 152.246 33.6219 152.246 35.8588C152.246 38.07 151.875 40.0627 151.127 41.841C150.38 43.6194 149.265 45.0207 147.788 46.0491C146.302 47.0733 144.47 47.5875 142.284 47.5875ZM142.72 57.4693C141.476 57.4693 140.284 57.2764 139.139 56.8951C137.998 56.5094 136.97 55.9566 136.058 55.2367C135.147 54.5167 134.4 53.6468 133.816 52.6312L138.422 50.3686C138.849 51.1786 139.454 51.7785 140.236 52.1684C141.018 52.5584 141.852 52.7555 142.737 52.7555C143.774 52.7555 144.703 52.5755 145.52 52.2113C146.336 51.847 146.967 51.3114 147.42 50.6043C147.874 49.8973 148.081 49.0145 148.055 47.9603V41.6396H148.678V24.7387H153.058V48.0418C153.058 48.6031 153.032 49.1431 152.985 49.6573C152.937 50.1715 152.855 50.6772 152.747 51.17C152.415 52.6098 151.779 53.7968 150.838 54.7224C149.896 55.6481 148.729 56.338 147.343 56.7922C145.947 57.2422 144.405 57.4693 142.72 57.4693ZM143.053 43.1395C144.396 43.1395 145.476 42.8352 146.302 42.2224C147.127 41.6139 147.727 40.7569 148.107 39.6598C148.488 38.5628 148.678 37.2944 148.678 35.8503C148.678 34.3976 148.488 33.1206 148.107 32.0321C147.727 30.9394 147.135 30.0909 146.332 29.4781C145.528 28.8696 144.491 28.5611 143.217 28.5611C141.873 28.5611 140.767 28.8868 139.895 29.5381C139.022 30.1895 138.378 31.0679 137.964 32.1735C137.549 33.2791 137.342 34.5047 137.342 35.8503C137.342 37.2087 137.545 38.4428 137.955 39.5441C138.361 40.6497 138.988 41.5239 139.834 42.171C140.677 42.8181 141.752 43.1395 143.053 43.1395Z" fill="white"/>
<path d="M156.791 21.3619V16.811H161.794V21.3619H156.791ZM156.791 46.9705V24.7387H161.794V46.9705H156.791Z" fill="white"/>
<path d="M175.259 47.5875C172.948 47.5875 170.978 47.0776 169.345 46.0534C167.712 45.0293 166.463 43.6366 165.599 41.8625C164.735 40.0927 164.295 38.0872 164.282 35.8503C164.295 33.5705 164.748 31.5522 165.643 29.7867C166.537 28.0212 167.803 26.637 169.453 25.63C171.099 24.623 173.056 24.1173 175.328 24.1173C177.873 24.1173 180.029 24.7515 181.791 26.02C183.554 27.2884 184.707 29.0239 185.247 31.2179L180.266 32.5549C179.877 31.3594 179.234 30.4295 178.335 29.7652C177.437 29.101 176.413 28.7668 175.264 28.7668C173.963 28.7668 172.892 29.071 172.045 29.6838C171.203 30.2966 170.581 31.1365 170.179 32.2036C169.777 33.2749 169.578 34.4876 169.578 35.846C169.578 37.9586 170.058 39.6684 171.013 40.9711C171.967 42.2739 173.384 42.9252 175.268 42.9252C176.594 42.9252 177.644 42.6252 178.413 42.021C179.182 41.4168 179.756 40.5469 180.145 39.407L185.252 40.5383C184.56 42.8009 183.351 44.5407 181.618 45.7577C179.882 46.979 177.765 47.5875 175.259 47.5875Z" fill="white"/>
<path d="M188.997 39.5613V17.3252H194V39.557H188.997V39.5613ZM188.997 46.9705V42.4195H194V46.9705H188.997Z" fill="white"/>
</g>
<defs>
<clipPath id="clip0">
<rect width="194" height="64" fill="white"/>
</clipPath>
</defs>
</svg>
