<svg width="20" height="18" viewBox="0 0 20 18" fill="none" xmlns="http://www.w3.org/2000/svg">
<path d="M1 0.744629H19C19.2652 0.744629 19.5196 0.84127 19.7071 1.01329C19.8946 1.18532 20 1.41863 20 1.66191V16.3383C20 16.5816 19.8946 16.8149 19.7071 16.987C19.5196 17.159 19.2652 17.2556 19 17.2556H1C0.734784 17.2556 0.48043 17.159 0.292893 16.987C0.105357 16.8149 0 16.5816 0 16.3383V1.66191C0 1.41863 0.105357 1.18532 0.292893 1.01329C0.48043 0.84127 0.734784 0.744629 1 0.744629ZM10.06 8.70934L3.648 3.71477L2.353 5.1127L10.073 11.1255L17.654 5.10812L16.346 3.72028L10.061 8.70934H10.06Z" fill="#09AD90"/>
</svg>
