<svg width="18" height="22" viewBox="0 0 18 22" fill="none" xmlns="http://www.w3.org/2000/svg">
<path d="M15.364 15.3492L9 21.5L2.636 15.3492C1.37734 14.1327 0.520186 12.5828 0.172928 10.8954C-0.17433 9.2081 0.00390684 7.45913 0.685098 5.86969C1.36629 4.28026 2.51984 2.92175 3.99988 1.96595C5.47992 1.01015 7.21997 0.5 9 0.5C10.78 0.5 12.5201 1.01015 14.0001 1.96595C15.4802 2.92175 16.6337 4.28026 17.3149 5.86969C17.9961 7.45913 18.1743 9.2081 17.8271 10.8954C17.4798 12.5828 16.6227 14.1327 15.364 15.3492ZM9 11.1314C9.53043 11.1314 10.0391 10.9278 10.4142 10.5652C10.7893 10.2027 11 9.71107 11 9.19841C11 8.68575 10.7893 8.19408 10.4142 7.83157C10.0391 7.46907 9.53043 7.26541 9 7.26541C8.46957 7.26541 7.96086 7.46907 7.58579 7.83157C7.21071 8.19408 7 8.68575 7 9.19841C7 9.71107 7.21071 10.2027 7.58579 10.5652C7.96086 10.9278 8.46957 11.1314 9 11.1314Z" fill="#6A2EA6"/>
</svg>
