<svg width="18" height="18" viewBox="0 0 18 18" fill="none" xmlns="http://www.w3.org/2000/svg">
<path d="M17.999 13.0545V16.298C17.9991 16.5302 17.9032 16.7538 17.7306 16.9237C17.558 17.0936 17.3216 17.1972 17.0691 17.2134C16.6321 17.2409 16.2751 17.2556 15.9991 17.2556C7.1626 17.2556 0 10.6852 0 2.57918C0 2.32601 0.0149992 1.99855 0.0459974 1.5977C0.0637188 1.36603 0.176571 1.14916 0.361783 0.990834C0.546995 0.83251 0.790779 0.744524 1.04394 0.744629H4.57975C4.70378 0.744514 4.82343 0.786694 4.91546 0.862976C5.00748 0.939258 5.06531 1.0442 5.07772 1.1574C5.10072 1.36838 5.12172 1.53624 5.14171 1.66374C5.34044 2.93593 5.74768 4.17326 6.34965 5.33377C6.44464 5.51722 6.38265 5.73645 6.20266 5.85386L4.04478 7.2683C5.36416 10.0884 7.81411 12.3358 10.8884 13.5461L12.4283 11.5703C12.4913 11.4896 12.5831 11.4317 12.6878 11.4067C12.7925 11.3818 12.9034 11.3913 13.0013 11.4337C14.2662 11.9848 15.6147 12.3575 17.0011 12.539C17.14 12.5573 17.323 12.5775 17.551 12.5977C17.6743 12.6093 17.7884 12.6624 17.8714 12.7468C17.9543 12.8312 18.0002 12.9409 18 13.0545H17.999Z" fill="#09AD90"/>
</svg>
