<svg width="26" height="50" viewBox="0 0 26 50" fill="none" xmlns="http://www.w3.org/2000/svg">
<path d="M22.4638 46.6292V37.0787H17.7253L18.5326 24.1573L20.779 20.7865V10.6742L15.7543 9.23809C17.0912 8.3273 17.971 6.7927 17.971 5.05618C17.971 2.2682 15.7036 0 12.9167 0C10.1297 0 7.86232 2.2682 7.86232 5.05618C7.86232 6.7927 8.74211 8.32719 10.079 9.23798L5.05435 10.6742V20.7865L7.30072 24.1573L8.10807 37.0787H3.36957V46.6292H0V50H25.8333V46.6292H22.4638ZM16.2862 46.6292V43.2584H9.5471V46.6292H6.73913V40.4494H19.0942V46.6292H16.2862ZM10.6072 23.042L8.42391 19.766V13.2167L12.9167 11.9326L17.4094 13.2167V19.766L15.2262 23.042L14.3492 37.0787H11.4842L10.6072 23.042ZM12.9167 3.37079C13.8457 3.37079 14.6014 4.12685 14.6014 5.05618C14.6014 5.98551 13.8457 6.74157 12.9167 6.74157C11.9877 6.74157 11.2319 5.98551 11.2319 5.05618C11.2319 4.12685 11.9877 3.37079 12.9167 3.37079Z" fill="#999FBF"/>
</svg>
