<svg width="30" height="30" viewBox="0 0 30 30" fill="none" xmlns="http://www.w3.org/2000/svg">
<path d="M15 30C6.7155 30 0 23.2845 0 15C0 6.7155 6.7155 0 15 0C23.2845 0 30 6.7155 30 15C30 23.2845 23.2845 30 15 30ZM10.335 16.755L10.3545 16.7445L11.6595 21.0495C11.8275 21.516 12.0585 21.6 12.339 21.561C12.621 21.5235 12.7695 21.372 12.954 21.195L14.736 19.473L18.561 22.305C19.26 22.6905 19.7625 22.491 19.9365 21.657L22.422 9.924C22.6965 8.832 22.2165 8.394 21.369 8.742L6.7695 14.382C5.7735 14.781 5.7795 15.339 6.5895 15.5865L10.335 16.7565V16.755Z" fill="white"/>
</svg>
