<svg width="31" height="30" viewBox="0 0 31 30" fill="none" xmlns="http://www.w3.org/2000/svg">
<path fill-rule="evenodd" clip-rule="evenodd" d="M20.0949 0H10.6551C2.03987 0 0 1.99012 0 10.3952V19.6048C0 28.0099 2.03987 30 10.6551 30H20.0949C28.7101 30 30.75 28.0099 30.75 19.6048V10.3952C30.75 1.99012 28.6884 0 20.0949 0ZM24.8257 21.4044H22.5905C21.7442 21.4044 21.4838 20.7481 19.9647 19.2449C18.641 17.9958 18.055 17.8264 17.7295 17.8264C17.2738 17.8264 17.1436 17.9534 17.1436 18.5674V20.5363C17.1436 21.0656 16.97 21.3832 15.5378 21.3832C13.1724 21.3832 10.5466 19.9859 8.70201 17.3818C5.92431 13.5709 5.16478 10.7128 5.16478 10.12C5.16478 9.8024 5.29499 9.506 5.92431 9.506H8.15949C8.72371 9.506 8.94072 9.76006 9.15773 10.3529C10.2645 13.4651 12.109 16.1962 12.8686 16.1962C13.1507 16.1962 13.2809 16.0692 13.2809 15.3705V12.1524C13.1941 10.6704 12.3911 10.5434 12.3911 10.0141C12.3911 9.76005 12.6082 9.506 12.9554 9.506H16.4709C16.9483 9.506 17.1219 9.76006 17.1219 10.3105V14.6507C17.1219 15.1164 17.3389 15.2858 17.4691 15.2858C17.7512 15.2858 17.9899 15.1164 18.5108 14.6083C20.1166 12.8511 21.2668 10.1411 21.2668 10.1411C21.4187 9.82357 21.6791 9.52717 22.2433 9.52717H24.4785C25.1512 9.52717 25.3031 9.86591 25.1512 10.3317C24.8691 11.602 22.1348 15.3705 22.1348 15.3705C21.8961 15.7516 21.8093 15.921 22.1348 16.3444C22.3735 16.662 23.1547 17.3183 23.6755 17.9111C24.6304 18.9697 25.3682 19.8589 25.5635 20.4728C25.7805 21.0868 25.455 21.4044 24.8257 21.4044Z" fill="white"/>
</svg>
